<?xml version="1.0" encoding="utf-8"?>
<!-- Generator: Adobe Illustrator 20.0.0, SVG Export Plug-In . SVG Version: 6.00 Build 0)  -->
<svg version="1.1" id="Layer_1" xmlns="http://www.w3.org/2000/svg"  x="0px" y="0px"
	 viewBox="0 0 268.3 84.3" style="enable-background:new 0 0 268.3 84.3;" xml:space="preserve">
<style type="text/css">
	.st0{fill:#FFFFFF;}
	.st1{fill-rule:evenodd;clip-rule:evenodd;fill:#FFFFFF;}
</style>
<g>
	<g>
		<g>
			<path class="st0" d="M7.5,54.7c2.9-0.5,5.8-0.7,9.4-0.7c3.6,0,9.2,0.3,9.2,6.5V70c0,2.4,1,2.8,2.1,2.8c0.7,0,1.3-0.1,1.9-0.3
				l0.2,3c-1.3,0.4-3.1,0.6-4.2,0.6c-2.5,0-4.1-0.7-4.9-2.7c-2.1,2.2-5.8,2.7-8.1,2.7c-5.5,0-7-2.7-7-5.7c0-3.8,2.1-7.1,14.6-7.2
				v-2.8c0-2.3-1.9-2.8-5.6-2.8c-2.3,0-5,0.2-7.3,0.7L7.5,54.7z M20.7,68.4v-1.5c-8.1,0-9.3,1.7-9.3,3.2c0,1.5,1.2,2.3,3.7,2.3
				C18,72.5,20.7,71.4,20.7,68.4z"/>
			<path class="st0" d="M34.5,52.1v-3.3c0-1.4-0.4-2.2-1.7-2.2c-0.4,0-1,0-1.5,0.1l-0.3-3.1c1.3-0.3,3.1-0.5,3.9-0.5
				c3.9,0,5,2,5,5.3v9.2C41.1,55,44.1,54,47,54c6,0,8.8,4.7,8.8,11.3c0,6-2.4,11-9.2,11c-2.7,0-6-0.8-7.4-4.4v3.9h-4.8L34.5,52.1
				L34.5,52.1z M39.4,65.2c0,4.2,1.9,7.2,5.4,7.2c3.7,0,5.4-3.5,5.4-7.3c0-3.8-1.6-7.2-5.3-7.2C41.3,57.9,39.4,60.9,39.4,65.2z"/>
			<path class="st0" d="M59.8,72.1c2.8,0.4,4.5,0.5,6.6,0.5c4,0,5.6-0.7,5.6-2.5c0-4.8-12-1.9-12-10.2c0-4.2,3-5.9,9.3-5.9
				c2.6,0,5.9,0.3,7.3,0.6l-0.3,3.6c-1.2-0.3-3.3-0.6-6.1-0.6c-3.2,0-5.3,0.4-5.3,2.2c0,4,12.1,1.1,12.1,9.9c0,5.1-4.2,6.5-9.6,6.5
				c-2.6,0-5.4-0.2-7.8-0.6L59.8,72.1z"/>
			<path class="st0" d="M79.9,57.8v-3.3h3l2.7-5.8h2.5v5.8h5.3v3.3h-5.3v12c0,1.4,0.2,3.1,2.7,3.1c1.1,0,2.1-0.2,3.1-0.5l0.2,3
				c-1.2,0.5-3.1,0.8-5.4,0.8c-4.9,0-6-2.6-6-6.1V57.8H79.9z"/>
			<path class="st0" d="M100,59.3c-0.1-1.2-0.5-1.9-1.7-1.9c-0.4,0-1,0-1.5,0.1l-0.3-3.1c1.3-0.3,3.1-0.5,3.9-0.5
				c3.5,0,4.7,1.6,4.9,4.2c1.7-3.2,4.4-4,6.2-4.1c1.2-0.1,2.6,0,3.7,0.6l-0.2,3.7c-1.5-0.4-2.2-0.4-3.4-0.4c-2.6,0-6.3,1.6-6.3,9.7
				v8.1H100v-5.6h0L100,59.3L100,59.3z"/>
			<path class="st0" d="M118.8,54.7c2.9-0.5,5.8-0.7,9.4-0.7c3.6,0,9.2,0.3,9.2,6.5V70c0,2.4,1,2.8,2.1,2.8c0.7,0,1.3-0.1,1.9-0.3
				l0.2,3c-1.3,0.4-3.1,0.6-4.2,0.6c-2.5,0-4.1-0.7-4.9-2.7c-2.1,2.2-5.8,2.7-8.1,2.7c-5.5,0-7-2.7-7-5.7c0-3.8,2.1-7.1,14.6-7.2
				v-2.8c0-2.3-1.9-2.8-5.6-2.8c-2.3,0-5,0.2-7.3,0.7L118.8,54.7z M132,68.4v-1.5c-8.1,0-9.3,1.7-9.3,3.2c0,1.5,1.2,2.3,3.7,2.3
				C129.3,72.5,132,71.4,132,68.4z"/>
			<path class="st0" d="M160.9,58.8c-1.3-0.4-3-0.8-4.9-0.8c-4.6,0-6.7,2.1-6.7,7.1c0,4.8,2,7.3,6.7,7.3c1.8,0,3.5-0.3,5-0.8
				l0.3,3.7c-1.7,0.6-4.2,1-6.6,1c-7.8,0-11-4-11-11.1c0-7.8,4-11.1,11.1-11.1c3.2,0,4.9,0.5,6.5,0.9L160.9,58.8z"/>
			<path class="st0" d="M164.8,57.8v-3.3h3l2.7-5.8h2.5v5.8h5.3v3.3h-5.3v12c0,1.4,0.2,3.1,2.7,3.1c1.1,0,2.1-0.2,3.1-0.5l0.2,3
				c-1.2,0.5-3.1,0.8-5.4,0.8c-4.9,0-6-2.6-6-6.1V57.8H164.8z"/>
			<path class="st0" d="M183.4,54.7c2.9-0.5,5.8-0.7,9.4-0.7c3.6,0,9.2,0.3,9.2,6.5V70c0,2.4,1,2.8,2.1,2.8c0.7,0,1.3-0.1,1.9-0.3
				l0.2,3c-1.3,0.4-3.1,0.6-4.2,0.6c-2.5,0-4.1-0.7-4.9-2.7c-2.1,2.2-5.8,2.7-8.1,2.7c-5.5,0-7-2.7-7-5.7c0-3.8,2.1-7.1,14.6-7.2
				v-2.8c0-2.3-1.9-2.8-5.6-2.8c-2.3,0-5,0.2-7.3,0.7L183.4,54.7z M196.6,68.4v-1.5c-8.1,0-9.3,1.7-9.3,3.2c0,1.5,1.2,2.3,3.7,2.3
				C193.9,72.5,196.6,71.4,196.6,68.4z"/>
		</g>
	</g>
	<g>
		<path class="st1" d="M222.9,60.5h11.6c1.1,0,1.9,0.9,1.9,1.9v11.9c0,1.1-0.9,1.9-1.9,1.9h-11.6c-1.1,0-1.9-0.9-1.9-1.9V62.4
			C220.9,61.4,221.8,60.5,222.9,60.5L222.9,60.5z"/>
	</g>
	<g>
		<path class="st1" d="M220.8,11.4c4.3-4.3,11.2-4.3,15.5,0c2.8,2.9,3.8,6.9,2.9,10.6c-0.7,3-0.1,5.6,2,7.7c2.2,2.1,3.3,1.9,6.1,1.9
			h12.2c1.5,0,2.6,1.2,2.6,2.7v17c0,1.5-1.2,2.7-2.6,2.7h-15.8c-1.5,0-2.6-1.2-2.6-2.7v-13c0-2.8,0.2-4-1.9-6.1
			c-2.1-2.2-4.8-2.8-7.8-2.1c-3.6,1-7.7,0-10.5-2.9C216.5,22.7,216.5,15.7,220.8,11.4L220.8,11.4z"/>
	</g>
</g>
</svg>
